<?xml version="1.0" encoding="UTF-8"?>
<svg id="Layer_2" data-name="Layer 2" xmlns="http://www.w3.org/2000/svg" viewBox="0 0 206.29 97.19">
  <defs>
    <style>
      .cls-1 {
        fill: #f4f4f4;
      }
    </style>
  </defs>
  <g id="Layer_1-2" data-name="Layer 1">
    <g>
      <path class="cls-1" d="M184.89,76.38h-119.63c-2.65,0-4.44-.83-5.37-2.5-.93-1.67-1.4-3.95-1.4-6.84v-10h-4.49v19.78c0,2.65-.1,4.94-.29,6.88-.2,1.94-.65,3.54-1.36,4.82-.71,1.28-1.75,2.23-3.13,2.87-1.37.64-3.23,1-5.59,1.1v4.71c2.99-.1,5.44-.49,7.35-1.18,1.91-.69,3.42-1.79,4.52-3.31,1.1-1.52,1.88-3.49,2.32-5.92.44-2.43.66-5.43.66-9.01,1.08,2.21,3.33,3.31,6.77,3.31h124.27v-18.09h-4.63v13.38Z"/>
      <path class="cls-1" d="M181.43,47.9c.88,0,1.65-.32,2.32-.96.66-.64.99-1.4.99-2.28s-.33-1.63-.99-2.24c-.66-.61-1.43-.92-2.32-.92s-1.64.31-2.28.92c-.64.61-.96,1.36-.96,2.24s.32,1.64.96,2.28c.64.64,1.4.96,2.28.96"/>
      <path class="cls-1" d="M176.29,57.17c.88,0,1.64-.32,2.28-.96.64-.64.96-1.4.96-2.28s-.32-1.63-.96-2.24c-.64-.61-1.4-.92-2.28-.92s-1.64.31-2.28.92c-.64.61-.96,1.36-.96,2.24s.32,1.64.96,2.28c.64.64,1.4.96,2.28.96"/>
      <path class="cls-1" d="M186.29,50.77c-.88,0-1.64.31-2.28.92-.64.61-.96,1.36-.96,2.24s.32,1.64.96,2.28c.64.64,1.4.96,2.28.96s1.64-.32,2.28-.96c.64-.64.96-1.4.96-2.28s-.32-1.63-.96-2.24c-.64-.61-1.4-.92-2.28-.92"/>
      <path class="cls-1" d="M203.42,22.65c-1.72,0-3.04-.38-3.97-1.14-.93-.76-1.4-1.8-1.4-3.13,0-.88.3-1.71.88-2.5.59-.78,1.69-1.18,3.31-1.18.39,0,.78.03,1.18.07.39.05.86.15,1.4.29v-2.94c-.34-.1-.77-.17-1.29-.22s-1.04-.07-1.58-.07c-1.72,0-3.22.55-4.52,1.66-1.3,1.1-1.95,2.68-1.95,4.74,0,1.62.59,3.09,1.77,4.41h-3.53v2.72h12.58v-2.72h-2.87Z"/>
      <rect class="cls-1" x="197.83" y="29.05" width="4.63" height="52.04"/>
      <path class="cls-1" d="M34.2,56.62l-31.24,1.52c-3.56.17-4.08,5.22-.63,6.12l21.92,5.72c.85.22,1.46.94,1.54,1.81l2.12,22.56c.33,3.55,5.4,3.84,6.14.36l6.53-30.58c.85-4-2.31-7.72-6.39-7.52"/>
      <path class="cls-1" d="M54.04,52.15c1.53,0,3.06-.01,4.59-.02V18.31h7.66v-3.86h-7.66V3.15h-4.59v11.3h-5.83v3.86h5.83v33.83Z"/>
      <path class="cls-1" d="M78.17,3.15v17.79h.15c.88-2.28,2.43-4.12,4.67-5.5,2.24-1.39,4.69-2.08,7.36-2.08s4.82.34,6.6,1.02c1.77.68,3.2,1.64,4.26,2.88,1.07,1.24,1.82,2.76,2.26,4.56.44,1.8.66,3.82.66,6.05v24.2h-4.59v-23.48c0-1.6-.15-3.1-.44-4.48-.29-1.39-.8-2.59-1.53-3.61-.73-1.02-1.71-1.82-2.95-2.41-1.24-.58-2.78-.88-4.63-.88s-3.49.33-4.92.98c-1.43.66-2.65,1.56-3.64,2.7-1,1.14-1.78,2.5-2.33,4.08-.56,1.58-.86,3.29-.91,5.14v21.94h-4.59V3.15h4.59Z"/>
      <path class="cls-1" d="M114.48,20.28c.78-1.6,1.83-2.92,3.17-3.94,1.34-1.02,2.9-1.77,4.7-2.26,1.8-.48,3.79-.73,5.98-.73,1.65,0,3.3.16,4.96.47,1.65.32,3.13.91,4.45,1.79,1.31.88,2.38,2.1,3.21,3.68.83,1.58,1.24,3.63,1.24,6.16v19.98c0,1.85.9,2.77,2.7,2.77.53,0,1.02-.1,1.46-.29v3.86c-.54.1-1.01.17-1.42.22-.41.05-.94.07-1.57.07-1.17,0-2.1-.16-2.81-.47-.71-.31-1.25-.77-1.64-1.35s-.64-1.28-.76-2.08c-.12-.8-.18-1.69-.18-2.66h-.14c-.83,1.22-1.67,2.3-2.52,3.24-.85.95-1.8,1.74-2.84,2.37-1.05.63-2.24,1.12-3.57,1.46-1.34.34-2.93.51-4.77.51-1.75,0-3.39-.21-4.92-.62-1.53-.41-2.87-1.07-4.01-1.97-1.14-.9-2.04-2.04-2.7-3.43s-.99-3.03-.99-4.92c0-2.62.58-4.68,1.75-6.16,1.17-1.48,2.71-2.61,4.63-3.39,1.92-.78,4.08-1.32,6.49-1.64,2.41-.31,4.85-.62,7.33-.91.97-.1,1.82-.22,2.55-.37.73-.15,1.34-.4,1.82-.76.48-.36.86-.86,1.13-1.49.27-.63.4-1.46.4-2.48,0-1.56-.26-2.83-.77-3.83-.51-1-1.21-1.79-2.11-2.37-.9-.58-1.95-.98-3.14-1.2-1.19-.22-2.47-.33-3.83-.33-2.92,0-5.3.69-7.14,2.08-1.85,1.39-2.82,3.61-2.92,6.67h-4.59c.14-2.19.61-4.08,1.39-5.69M137.44,31.51c-.29.54-.85.92-1.68,1.17-.83.24-1.56.41-2.19.51-1.95.34-3.95.65-6.02.91-2.07.27-3.95.67-5.65,1.2-1.7.54-3.1,1.3-4.19,2.3-1.09,1-1.64,2.42-1.64,4.27,0,1.17.23,2.2.69,3.1.46.9,1.08,1.68,1.86,2.33.78.66,1.68,1.16,2.7,1.49,1.02.34,2.07.51,3.13.51,1.75,0,3.43-.27,5.03-.8,1.6-.53,3-1.31,4.19-2.33,1.19-1.02,2.14-2.26,2.84-3.72.7-1.46,1.06-3.11,1.06-4.96v-5.98h-.15Z"/>
      <path class="cls-1" d="M156.33,14.45v8.82h.15c1.17-3.06,2.98-5.42,5.43-7.07,2.45-1.65,5.38-2.4,8.79-2.26v4.59c-2.09-.1-3.99.18-5.69.84-1.7.66-3.17,1.59-4.41,2.81-1.24,1.22-2.2,2.66-2.88,4.34-.68,1.68-1.02,3.51-1.02,5.51v20.05h-4.59V14.45h4.23Z"/>
      <path class="cls-1" d="M26.52,0l20.45,52.15h-5.33l-6.35-16.22H11.54l-6.28,16.22H0L20.96,0h5.55ZM33.6,31.7L23.52,4.97l-10.45,26.73h20.53Z"/>
    </g>
  </g>
</svg>